<mxfile host="app.diagrams.net" modified="2022-06-21T07:55:19.194Z" agent="5.0 (Macintosh; Intel Mac OS X 10_14_5) AppleWebKit/537.36 (KHTML, like Gecko) Chrome/102.0.0.0 Safari/537.36" etag="1KwHeGAlRuiCWf8ruHkw" version="20.0.1" type="github">
  <diagram id="C5RBs43oDa-KdzZeNtuy" name="Page-1">
    <mxGraphModel dx="888" dy="542" grid="0" gridSize="10" guides="1" tooltips="1" connect="1" arrows="1" fold="1" page="1" pageScale="1" pageWidth="827" pageHeight="1169" math="0" shadow="0">
      <root>
        <mxCell id="WIyWlLk6GJQsqaUBKTNV-0" />
        <mxCell id="WIyWlLk6GJQsqaUBKTNV-1" parent="WIyWlLk6GJQsqaUBKTNV-0" />
        <mxCell id="DPXU2AkobKbkYW6jvcfD-3" value="" style="endArrow=none;dashed=1;html=1;rounded=0;strokeWidth=2;" edge="1" parent="WIyWlLk6GJQsqaUBKTNV-1">
          <mxGeometry width="50" height="50" relative="1" as="geometry">
            <mxPoint x="120" y="150" as="sourcePoint" />
            <mxPoint x="760" y="150" as="targetPoint" />
          </mxGeometry>
        </mxCell>
        <mxCell id="DPXU2AkobKbkYW6jvcfD-4" value="" style="endArrow=none;dashed=1;html=1;rounded=0;strokeWidth=2;" edge="1" parent="WIyWlLk6GJQsqaUBKTNV-1">
          <mxGeometry width="50" height="50" relative="1" as="geometry">
            <mxPoint x="120" y="250" as="sourcePoint" />
            <mxPoint x="760" y="250" as="targetPoint" />
          </mxGeometry>
        </mxCell>
        <mxCell id="DPXU2AkobKbkYW6jvcfD-5" value="" style="endArrow=none;dashed=1;html=1;rounded=0;strokeWidth=2;" edge="1" parent="WIyWlLk6GJQsqaUBKTNV-1">
          <mxGeometry width="50" height="50" relative="1" as="geometry">
            <mxPoint x="120" y="420" as="sourcePoint" />
            <mxPoint x="760" y="420" as="targetPoint" />
          </mxGeometry>
        </mxCell>
        <mxCell id="DPXU2AkobKbkYW6jvcfD-8" value="用户访问" style="shape=umlActor;html=1;verticalLabelPosition=bottom;verticalAlign=top;align=center;" vertex="1" parent="WIyWlLk6GJQsqaUBKTNV-1">
          <mxGeometry x="350" y="20" width="30" height="50" as="geometry" />
        </mxCell>
        <mxCell id="DPXU2AkobKbkYW6jvcfD-10" value="" style="shape=singleArrow;direction=south;whiteSpace=wrap;html=1;fillColor=#3399FF;" vertex="1" parent="WIyWlLk6GJQsqaUBKTNV-1">
          <mxGeometry x="360" y="90" width="10" height="50" as="geometry" />
        </mxCell>
        <mxCell id="DPXU2AkobKbkYW6jvcfD-11" value="" style="rounded=0;whiteSpace=wrap;html=1;" vertex="1" parent="WIyWlLk6GJQsqaUBKTNV-1">
          <mxGeometry x="260" y="170" width="240" height="60" as="geometry" />
        </mxCell>
        <mxCell id="DPXU2AkobKbkYW6jvcfD-12" value="接入层" style="text;html=1;resizable=0;autosize=1;align=center;verticalAlign=middle;points=[];fillColor=none;strokeColor=none;rounded=0;" vertex="1" parent="WIyWlLk6GJQsqaUBKTNV-1">
          <mxGeometry x="120" y="190" width="50" height="20" as="geometry" />
        </mxCell>
        <mxCell id="DPXU2AkobKbkYW6jvcfD-13" value="数据层" style="text;html=1;resizable=0;autosize=1;align=center;verticalAlign=middle;points=[];fillColor=none;strokeColor=none;rounded=0;" vertex="1" parent="WIyWlLk6GJQsqaUBKTNV-1">
          <mxGeometry x="120" y="460" width="50" height="20" as="geometry" />
        </mxCell>
        <mxCell id="DPXU2AkobKbkYW6jvcfD-14" value="服务层" style="text;html=1;resizable=0;autosize=1;align=center;verticalAlign=middle;points=[];fillColor=none;strokeColor=none;rounded=0;" vertex="1" parent="WIyWlLk6GJQsqaUBKTNV-1">
          <mxGeometry x="120" y="330" width="50" height="20" as="geometry" />
        </mxCell>
        <mxCell id="DPXU2AkobKbkYW6jvcfD-15" value="nginx服务" style="rounded=1;whiteSpace=wrap;html=1;fillColor=#FF9933;strokeColor=#d6b656;" vertex="1" parent="WIyWlLk6GJQsqaUBKTNV-1">
          <mxGeometry x="270" y="180" width="90" height="40" as="geometry" />
        </mxCell>
        <mxCell id="DPXU2AkobKbkYW6jvcfD-16" value="nginx服务" style="rounded=1;whiteSpace=wrap;html=1;fillColor=#FF9933;" vertex="1" parent="WIyWlLk6GJQsqaUBKTNV-1">
          <mxGeometry x="400" y="180" width="90" height="40" as="geometry" />
        </mxCell>
        <mxCell id="DPXU2AkobKbkYW6jvcfD-17" value="" style="rounded=0;whiteSpace=wrap;html=1;fillColor=#FFFFFF;" vertex="1" parent="WIyWlLk6GJQsqaUBKTNV-1">
          <mxGeometry x="181" y="290" width="120" height="50" as="geometry" />
        </mxCell>
        <mxCell id="DPXU2AkobKbkYW6jvcfD-21" value="C端&lt;span style=&quot;color: rgba(0, 0, 0, 0); font-family: monospace; font-size: 0px; text-align: start;&quot;&gt;%3CmxGraphModel%3E%3Croot%3E%3CmxCell%20id%3D%220%22%2F%3E%3CmxCell%20id%3D%221%22%20parent%3D%220%22%2F%3E%3CmxCell%20id%3D%222%22%20value%3D%22%22%20style%3D%22rounded%3D0%3BwhiteSpace%3Dwrap%3Bhtml%3D1%3BfillColor%3D%23FFFFFF%3B%22%20vertex%3D%221%22%20parent%3D%221%22%3E%3CmxGeometry%20x%3D%22180%22%20y%3D%22290%22%20width%3D%22120%22%20height%3D%2260%22%20as%3D%22geometry%22%2F%3E%3C%2FmxCell%3E%3C%2Froot%3E%3C%2FmxGraphModel%3E&lt;/span&gt;" style="rounded=1;whiteSpace=wrap;html=1;fillColor=#FFFFFF;" vertex="1" parent="WIyWlLk6GJQsqaUBKTNV-1">
          <mxGeometry x="189" y="300" width="41" height="30" as="geometry" />
        </mxCell>
        <mxCell id="DPXU2AkobKbkYW6jvcfD-22" value="C端&lt;span style=&quot;color: rgba(0, 0, 0, 0); font-family: monospace; font-size: 0px; text-align: start;&quot;&gt;%3CmxGraphModel%3E%3Croot%3E%3CmxCell%20id%3D%220%22%2F%3E%3CmxCell%20id%3D%221%22%20parent%3D%220%22%2F%3E%3CmxCell%20id%3D%222%22%20value%3D%22%22%20style%3D%22rounded%3D0%3BwhiteSpace%3Dwrap%3Bhtml%3D1%3BfillColor%3D%23FFFFFF%3B%22%20vertex%3D%221%22%20parent%3D%221%22%3E%3CmxGeometry%20x%3D%22180%22%20y%3D%22290%22%20width%3D%22120%22%20height%3D%2260%22%20as%3D%22geometry%22%2F%3E%3C%2FmxCell%3E%3C%2Froot%3E%3C%2FmxGraphModel%3E&lt;/span&gt;" style="rounded=1;whiteSpace=wrap;html=1;fillColor=#FFFFFF;" vertex="1" parent="WIyWlLk6GJQsqaUBKTNV-1">
          <mxGeometry x="250" y="300" width="41" height="30" as="geometry" />
        </mxCell>
        <mxCell id="DPXU2AkobKbkYW6jvcfD-24" value="" style="rounded=0;whiteSpace=wrap;html=1;fillColor=#FFFFFF;" vertex="1" parent="WIyWlLk6GJQsqaUBKTNV-1">
          <mxGeometry x="310" y="290" width="120" height="50" as="geometry" />
        </mxCell>
        <mxCell id="DPXU2AkobKbkYW6jvcfD-25" value="管理端&lt;span style=&quot;color: rgba(0, 0, 0, 0); font-family: monospace; font-size: 0px; text-align: start;&quot;&gt;%3CmxGraphModel%3E%3Croot%3E%3CmxCell%20id%3D%220%22%2F%3E%3CmxCell%20id%3D%221%22%20parent%3D%220%22%2F%3E%3CmxCell%20id%3D%222%22%20value%3D%22%22%20style%3D%22rounded%3D0%3BwhiteSpace%3Dwrap%3Bhtml%3D1%3BfillColor%3D%23FFFFFF%3B%22%20vertex%3D%221%22%20parent%3D%221%22%3E%3CmxGeometry%20x%3D%22180%22%20y%3D%22290%22%20width%3D%22120%22%20height%3D%2260%22%20as%3D%22geometry%22%2F%3E%3C%2FmxCell%3E%3C%2Froot%3E%3C%2FmxGraphModel%3E&lt;/span&gt;" style="rounded=1;whiteSpace=wrap;html=1;fillColor=#FFFFFF;" vertex="1" parent="WIyWlLk6GJQsqaUBKTNV-1">
          <mxGeometry x="318" y="300" width="41" height="30" as="geometry" />
        </mxCell>
        <mxCell id="DPXU2AkobKbkYW6jvcfD-26" value="管理端" style="rounded=1;whiteSpace=wrap;html=1;fillColor=#FFFFFF;" vertex="1" parent="WIyWlLk6GJQsqaUBKTNV-1">
          <mxGeometry x="379" y="300" width="41" height="30" as="geometry" />
        </mxCell>
        <mxCell id="DPXU2AkobKbkYW6jvcfD-27" value="" style="rounded=0;whiteSpace=wrap;html=1;fillColor=#FFFFFF;" vertex="1" parent="WIyWlLk6GJQsqaUBKTNV-1">
          <mxGeometry x="440" y="290" width="170" height="50" as="geometry" />
        </mxCell>
        <mxCell id="DPXU2AkobKbkYW6jvcfD-28" value="B端(审核)" style="rounded=1;whiteSpace=wrap;html=1;fillColor=#FFFFFF;" vertex="1" parent="WIyWlLk6GJQsqaUBKTNV-1">
          <mxGeometry x="448" y="300" width="62" height="30" as="geometry" />
        </mxCell>
        <mxCell id="DPXU2AkobKbkYW6jvcfD-29" value="B端(审核)" style="rounded=1;whiteSpace=wrap;html=1;fillColor=#FFFFFF;" vertex="1" parent="WIyWlLk6GJQsqaUBKTNV-1">
          <mxGeometry x="530" y="300" width="71" height="30" as="geometry" />
        </mxCell>
        <mxCell id="DPXU2AkobKbkYW6jvcfD-30" value="" style="rounded=0;whiteSpace=wrap;html=1;fillColor=#FFFFFF;" vertex="1" parent="WIyWlLk6GJQsqaUBKTNV-1">
          <mxGeometry x="630.5" y="290" width="120" height="50" as="geometry" />
        </mxCell>
        <mxCell id="DPXU2AkobKbkYW6jvcfD-31" value="api端&lt;span style=&quot;color: rgba(0, 0, 0, 0); font-family: monospace; font-size: 0px; text-align: start;&quot;&gt;%3CmxGraphModel%3E%3Croot%3E%3CmxCell%20id%3D%220%22%2F%3E%3CmxCell%20id%3D%221%22%20parent%3D%220%22%2F%3E%3CmxCell%20id%3D%222%22%20value%3D%22%22%20style%3D%22rounded%3D0%3BwhiteSpace%3Dwrap%3Bhtml%3D1%3BfillColor%3D%23FFFFFF%3B%22%20vertex%3D%221%22%20parent%3D%221%22%3E%3CmxGeometry%20x%3D%22180%22%20y%3D%22290%22%20width%3D%22120%22%20height%3D%2260%22%20as%3D%22geometry%22%2F%3E%3C%2FmxCell%3E%3C%2Froot%3E%3C%2FmxGraphModel%3E&lt;/span&gt;" style="rounded=1;whiteSpace=wrap;html=1;fillColor=#FFFFFF;" vertex="1" parent="WIyWlLk6GJQsqaUBKTNV-1">
          <mxGeometry x="640" y="300" width="40" height="30" as="geometry" />
        </mxCell>
        <mxCell id="DPXU2AkobKbkYW6jvcfD-32" value="api端&lt;span style=&quot;color: rgba(0, 0, 0, 0); font-family: monospace; font-size: 0px; text-align: start;&quot;&gt;%3CmxGraphModel%3E%3Croot%3E%3CmxCell%20id%3D%220%22%2F%3E%3CmxCell%20id%3D%221%22%20parent%3D%220%22%2F%3E%3CmxCell%20id%3D%222%22%20value%3D%22%22%20style%3D%22rounded%3D0%3BwhiteSpace%3Dwrap%3Bhtml%3D1%3BfillColor%3D%23FFFFFF%3B%22%20vertex%3D%221%22%20parent%3D%221%22%3E%3CmxGeometry%20x%3D%22180%22%20y%3D%22290%22%20width%3D%22120%22%20height%3D%2260%22%20as%3D%22geometry%22%2F%3E%3C%2FmxCell%3E%3C%2Froot%3E%3C%2FmxGraphModel%3E&lt;/span&gt;" style="rounded=1;whiteSpace=wrap;html=1;fillColor=#FFFFFF;" vertex="1" parent="WIyWlLk6GJQsqaUBKTNV-1">
          <mxGeometry x="700" y="300" width="41" height="30" as="geometry" />
        </mxCell>
        <mxCell id="DPXU2AkobKbkYW6jvcfD-33" value="&lt;meta charset=&quot;utf-8&quot;&gt;&lt;span style=&quot;color: rgb(0, 0, 0); font-family: Helvetica; font-size: 12px; font-style: normal; font-variant-ligatures: normal; font-variant-caps: normal; font-weight: 400; letter-spacing: normal; orphans: 2; text-align: center; text-indent: 0px; text-transform: none; widows: 2; word-spacing: 0px; -webkit-text-stroke-width: 0px; background-color: rgb(248, 249, 250); text-decoration-thickness: initial; text-decoration-style: initial; text-decoration-color: initial; float: none; display: inline !important;&quot;&gt;……&lt;/span&gt;" style="rounded=1;whiteSpace=wrap;html=1;fillColor=#FFFFFF;" vertex="1" parent="WIyWlLk6GJQsqaUBKTNV-1">
          <mxGeometry x="189" y="440" width="210" height="100" as="geometry" />
        </mxCell>
        <mxCell id="DPXU2AkobKbkYW6jvcfD-34" value="" style="shape=cylinder3;whiteSpace=wrap;html=1;boundedLbl=1;backgroundOutline=1;size=15;fillColor=#FFFFFF;" vertex="1" parent="WIyWlLk6GJQsqaUBKTNV-1">
          <mxGeometry x="204.5" y="452.5" width="50" height="57.5" as="geometry" />
        </mxCell>
        <mxCell id="DPXU2AkobKbkYW6jvcfD-35" value="" style="shape=cylinder3;whiteSpace=wrap;html=1;boundedLbl=1;backgroundOutline=1;size=15;fillColor=#FFFFFF;" vertex="1" parent="WIyWlLk6GJQsqaUBKTNV-1">
          <mxGeometry x="329" y="452.5" width="51" height="57.5" as="geometry" />
        </mxCell>
        <mxCell id="DPXU2AkobKbkYW6jvcfD-36" value="Redis集群" style="text;html=1;resizable=0;autosize=1;align=center;verticalAlign=middle;points=[];fillColor=none;strokeColor=none;rounded=0;" vertex="1" parent="WIyWlLk6GJQsqaUBKTNV-1">
          <mxGeometry x="259" y="452.5" width="70" height="20" as="geometry" />
        </mxCell>
        <mxCell id="DPXU2AkobKbkYW6jvcfD-37" value="节点1" style="text;html=1;resizable=0;autosize=1;align=center;verticalAlign=middle;points=[];fillColor=none;strokeColor=none;rounded=0;" vertex="1" parent="WIyWlLk6GJQsqaUBKTNV-1">
          <mxGeometry x="209" y="510" width="50" height="20" as="geometry" />
        </mxCell>
        <mxCell id="DPXU2AkobKbkYW6jvcfD-38" value="节点N" style="text;html=1;resizable=0;autosize=1;align=center;verticalAlign=middle;points=[];fillColor=none;strokeColor=none;rounded=0;" vertex="1" parent="WIyWlLk6GJQsqaUBKTNV-1">
          <mxGeometry x="329" y="510" width="50" height="20" as="geometry" />
        </mxCell>
        <mxCell id="DPXU2AkobKbkYW6jvcfD-39" value="" style="rounded=1;whiteSpace=wrap;html=1;fillColor=#FFFFFF;" vertex="1" parent="WIyWlLk6GJQsqaUBKTNV-1">
          <mxGeometry x="510" y="440" width="210" height="100" as="geometry" />
        </mxCell>
        <mxCell id="DPXU2AkobKbkYW6jvcfD-40" value="" style="shape=cylinder3;whiteSpace=wrap;html=1;boundedLbl=1;backgroundOutline=1;size=15;fillColor=#FFFFFF;" vertex="1" parent="WIyWlLk6GJQsqaUBKTNV-1">
          <mxGeometry x="525.5" y="452.5" width="50" height="57.5" as="geometry" />
        </mxCell>
        <mxCell id="DPXU2AkobKbkYW6jvcfD-41" value="" style="shape=cylinder3;whiteSpace=wrap;html=1;boundedLbl=1;backgroundOutline=1;size=15;fillColor=#FFFFFF;" vertex="1" parent="WIyWlLk6GJQsqaUBKTNV-1">
          <mxGeometry x="650" y="452.5" width="51" height="57.5" as="geometry" />
        </mxCell>
        <mxCell id="DPXU2AkobKbkYW6jvcfD-42" value="Mysql集群" style="text;html=1;resizable=0;autosize=1;align=center;verticalAlign=middle;points=[];fillColor=none;strokeColor=none;rounded=0;" vertex="1" parent="WIyWlLk6GJQsqaUBKTNV-1">
          <mxGeometry x="575" y="452.5" width="80" height="20" as="geometry" />
        </mxCell>
        <mxCell id="DPXU2AkobKbkYW6jvcfD-43" value="节点1" style="text;html=1;resizable=0;autosize=1;align=center;verticalAlign=middle;points=[];fillColor=none;strokeColor=none;rounded=0;" vertex="1" parent="WIyWlLk6GJQsqaUBKTNV-1">
          <mxGeometry x="530" y="510" width="50" height="20" as="geometry" />
        </mxCell>
        <mxCell id="DPXU2AkobKbkYW6jvcfD-44" value="节点2" style="text;html=1;resizable=0;autosize=1;align=center;verticalAlign=middle;points=[];fillColor=none;strokeColor=none;rounded=0;" vertex="1" parent="WIyWlLk6GJQsqaUBKTNV-1">
          <mxGeometry x="650" y="510" width="50" height="20" as="geometry" />
        </mxCell>
        <mxCell id="DPXU2AkobKbkYW6jvcfD-45" value="" style="endArrow=classic;startArrow=classic;html=1;rounded=0;" edge="1" parent="WIyWlLk6GJQsqaUBKTNV-1">
          <mxGeometry width="50" height="50" relative="1" as="geometry">
            <mxPoint x="575.5" y="490" as="sourcePoint" />
            <mxPoint x="650" y="490" as="targetPoint" />
            <Array as="points">
              <mxPoint x="630" y="490" />
            </Array>
          </mxGeometry>
        </mxCell>
        <mxCell id="DPXU2AkobKbkYW6jvcfD-50" value="" style="shape=singleArrow;direction=south;whiteSpace=wrap;html=1;fillColor=#3399FF;rotation=48;" vertex="1" parent="WIyWlLk6GJQsqaUBKTNV-1">
          <mxGeometry x="277.79" y="221.69" width="10" height="77.19" as="geometry" />
        </mxCell>
        <mxCell id="DPXU2AkobKbkYW6jvcfD-52" value="" style="shape=singleArrow;direction=south;whiteSpace=wrap;html=1;fillColor=#3399FF;" vertex="1" parent="WIyWlLk6GJQsqaUBKTNV-1">
          <mxGeometry x="365" y="230" width="10" height="60" as="geometry" />
        </mxCell>
        <mxCell id="DPXU2AkobKbkYW6jvcfD-53" value="" style="shape=singleArrow;direction=south;whiteSpace=wrap;html=1;fillColor=#3399FF;rotation=314;" vertex="1" parent="WIyWlLk6GJQsqaUBKTNV-1">
          <mxGeometry x="426.4" y="221.53" width="10" height="81" as="geometry" />
        </mxCell>
        <mxCell id="DPXU2AkobKbkYW6jvcfD-54" value="" style="shape=singleArrow;direction=south;whiteSpace=wrap;html=1;fillColor=#3399FF;rotation=286;" vertex="1" parent="WIyWlLk6GJQsqaUBKTNV-1">
          <mxGeometry x="559" y="161.76" width="10" height="191" as="geometry" />
        </mxCell>
        <mxCell id="DPXU2AkobKbkYW6jvcfD-57" value="HTTP" style="shape=singleArrow;direction=east;whiteSpace=wrap;html=1;fillColor=#3399FF;verticalAlign=bottom;" vertex="1" parent="WIyWlLk6GJQsqaUBKTNV-1">
          <mxGeometry x="675.5" y="170" width="90" height="10" as="geometry" />
        </mxCell>
        <mxCell id="DPXU2AkobKbkYW6jvcfD-60" value="" style="shape=singleArrow;direction=south;whiteSpace=wrap;html=1;fillColor=#FF6666;" vertex="1" parent="WIyWlLk6GJQsqaUBKTNV-1">
          <mxGeometry x="244.5" y="340" width="10" height="100" as="geometry" />
        </mxCell>
        <mxCell id="DPXU2AkobKbkYW6jvcfD-61" value="" style="shape=singleArrow;direction=south;whiteSpace=wrap;html=1;fillColor=#FF6666;" vertex="1" parent="WIyWlLk6GJQsqaUBKTNV-1">
          <mxGeometry x="340" y="340" width="10" height="100" as="geometry" />
        </mxCell>
        <mxCell id="DPXU2AkobKbkYW6jvcfD-62" value="" style="shape=singleArrow;direction=south;whiteSpace=wrap;html=1;fillColor=#FF6666;rotation=48;" vertex="1" parent="WIyWlLk6GJQsqaUBKTNV-1">
          <mxGeometry x="440" y="325" width="10" height="130" as="geometry" />
        </mxCell>
        <mxCell id="DPXU2AkobKbkYW6jvcfD-64" value="" style="shape=singleArrow;direction=south;whiteSpace=wrap;html=1;fillColor=#FF9933;" vertex="1" parent="WIyWlLk6GJQsqaUBKTNV-1">
          <mxGeometry x="700" y="340" width="10" height="100" as="geometry" />
        </mxCell>
        <mxCell id="DPXU2AkobKbkYW6jvcfD-65" value="" style="shape=singleArrow;direction=south;whiteSpace=wrap;html=1;fillColor=#FF9933;" vertex="1" parent="WIyWlLk6GJQsqaUBKTNV-1">
          <mxGeometry x="580" y="340" width="10" height="100" as="geometry" />
        </mxCell>
        <mxCell id="DPXU2AkobKbkYW6jvcfD-66" value="" style="shape=singleArrow;direction=south;whiteSpace=wrap;html=1;fillColor=#FF9933;rotation=320;" vertex="1" parent="WIyWlLk6GJQsqaUBKTNV-1">
          <mxGeometry x="460" y="325" width="10" height="140" as="geometry" />
        </mxCell>
        <mxCell id="DPXU2AkobKbkYW6jvcfD-67" value="" style="shape=singleArrow;direction=south;whiteSpace=wrap;html=1;fillColor=#FF9933;rotation=299;" vertex="1" parent="WIyWlLk6GJQsqaUBKTNV-1">
          <mxGeometry x="385.04" y="272.49" width="10" height="277.16" as="geometry" />
        </mxCell>
        <mxCell id="DPXU2AkobKbkYW6jvcfD-68" value="Redis" style="shape=singleArrow;direction=east;whiteSpace=wrap;html=1;fillColor=#FF6666;verticalAlign=bottom;" vertex="1" parent="WIyWlLk6GJQsqaUBKTNV-1">
          <mxGeometry x="675.51" y="200" width="94.5" height="10" as="geometry" />
        </mxCell>
        <mxCell id="DPXU2AkobKbkYW6jvcfD-69" value="Mysql" style="shape=singleArrow;direction=east;whiteSpace=wrap;html=1;fillColor=#FF9933;verticalAlign=bottom;" vertex="1" parent="WIyWlLk6GJQsqaUBKTNV-1">
          <mxGeometry x="675.5" y="230" width="94.5" height="10" as="geometry" />
        </mxCell>
      </root>
    </mxGraphModel>
  </diagram>
</mxfile>
